<?xml version="1.0" encoding="utf-8"?>
<!-- Generator: Adobe Illustrator 18.0.0, SVG Export Plug-In . SVG Version: 6.00 Build 0)  -->
<!DOCTYPE svg PUBLIC "-//W3C//DTD SVG 1.1//EN" "http://www.w3.org/Graphics/SVG/1.1/DTD/svg11.dtd">
<svg version="1.1" id="Layer_1" xmlns="http://www.w3.org/2000/svg" xmlns:xlink="http://www.w3.org/1999/xlink" x="0px" y="0px"
	 viewBox="0 0 100 40" enable-background="new 0 0 100 40" xml:space="preserve">
<g>
	<path fill="#FFFFFF" d="M19.2,20.7c0.1,0.1,0.3,0.3,0.4,0.4c0.2,0.1,0.3,0.3,0.5,0.4c0.2,0.1,0.4,0.2,0.6,0.3
		c0.2,0.1,0.5,0.1,0.7,0.1c0.2,0,0.3,0,0.5-0.1c0.2-0.1,0.3-0.1,0.4-0.2c0.1-0.1,0.2-0.2,0.3-0.3c0.1-0.1,0.1-0.3,0.1-0.4
		c0-0.3-0.2-0.6-0.5-0.8c-0.3-0.2-0.8-0.4-1.6-0.6c-0.3-0.1-0.7-0.2-1-0.4c-0.3-0.2-0.6-0.3-0.8-0.6c-0.2-0.2-0.4-0.5-0.5-0.7
		c-0.1-0.3-0.2-0.6-0.2-0.9c0-0.4,0.1-0.7,0.2-1.1c0.1-0.3,0.3-0.6,0.6-0.9c0.3-0.3,0.6-0.5,1-0.6c0.4-0.2,0.9-0.2,1.5-0.2
		c0.5,0,0.9,0.1,1.2,0.1c0.4,0.1,0.7,0.2,0.9,0.3c0.2,0.1,0.4,0.3,0.6,0.4c0.2,0.1,0.3,0.3,0.4,0.3l-1.2,1.3
		c-0.1-0.1-0.2-0.2-0.3-0.3c-0.1-0.1-0.3-0.2-0.4-0.3s-0.3-0.2-0.5-0.2s-0.4-0.1-0.6-0.1c-0.1,0-0.3,0-0.4,0.1
		c-0.1,0.1-0.3,0.1-0.4,0.2s-0.2,0.2-0.3,0.3c-0.1,0.1-0.1,0.2-0.1,0.3c0,0.3,0.2,0.6,0.5,0.7c0.3,0.2,0.8,0.3,1.3,0.5
		c0.3,0.1,0.7,0.2,1,0.3c0.3,0.1,0.6,0.3,0.9,0.6c0.3,0.2,0.5,0.5,0.6,0.8c0.2,0.3,0.2,0.7,0.2,1.2c0,0.4-0.1,0.8-0.3,1.1
		s-0.4,0.6-0.7,0.9c-0.3,0.3-0.7,0.4-1.1,0.6s-0.9,0.2-1.4,0.2c-0.4,0-0.9,0-1.2-0.1c-0.4-0.1-0.7-0.2-1-0.3
		c-0.3-0.1-0.6-0.3-0.8-0.5c-0.2-0.2-0.4-0.4-0.6-0.6L19.2,20.7z"/>
	<path fill="#FFFFFF" d="M26.6,18.6h-1V17h1v-1.9h2V17h1.7v1.5h-1.7v2.5c0,0.3,0.1,0.6,0.2,0.7c0.1,0.2,0.3,0.3,0.6,0.3
		c0.2,0,0.4,0,0.5-0.1c0.1-0.1,0.3-0.2,0.4-0.2l0.8,1.2c-0.6,0.5-1.3,0.7-2,0.7c-0.4,0-0.8-0.1-1.1-0.2c-0.3-0.1-0.6-0.3-0.7-0.6
		c-0.2-0.2-0.3-0.5-0.4-0.8c-0.1-0.3-0.1-0.7-0.1-1.1V18.6z"/>
	<path fill="#FFFFFF" d="M35.6,22.8c-0.2,0.3-0.5,0.4-0.8,0.6c-0.3,0.1-0.7,0.2-1.1,0.2c-0.2,0-0.5,0-0.7-0.1
		c-0.2-0.1-0.5-0.2-0.7-0.3c-0.2-0.2-0.4-0.3-0.5-0.6c-0.1-0.3-0.2-0.6-0.2-1c0-0.4,0.1-0.7,0.2-1c0.2-0.3,0.4-0.5,0.6-0.7
		c0.3-0.2,0.6-0.3,0.9-0.4s0.7-0.2,1.2-0.2c0.2,0,0.5,0,0.7,0s0.4,0,0.5,0v-0.1c0-0.2,0-0.3-0.1-0.4c-0.1-0.1-0.2-0.2-0.3-0.3
		c-0.1-0.1-0.2-0.1-0.4-0.2c-0.1,0-0.3-0.1-0.5-0.1c-0.4,0-0.8,0.1-1.1,0.2c-0.3,0.1-0.5,0.2-0.7,0.4l-0.8-1.2
		c0.1-0.1,0.3-0.2,0.5-0.3c0.2-0.1,0.4-0.2,0.6-0.3c0.2-0.1,0.5-0.2,0.8-0.2c0.3-0.1,0.6-0.1,1-0.1c1,0,1.7,0.3,2.2,0.8
		c0.5,0.5,0.7,1.2,0.7,2.1v3.7h-1.8L35.6,22.8z M35.6,20.6c-0.1,0-0.1,0-0.3,0s-0.3,0-0.4,0c-0.6,0-0.9,0.1-1.2,0.2
		c-0.2,0.2-0.3,0.4-0.3,0.7c0,0.5,0.3,0.8,1,0.8c0.2,0,0.3,0,0.5-0.1c0.2-0.1,0.3-0.1,0.4-0.2s0.2-0.2,0.3-0.3
		c0.1-0.1,0.1-0.3,0.1-0.5L35.6,20.6L35.6,20.6z"/>
	<path fill="#FFFFFF" d="M38.6,17h1.9l0.1,0.8c0.2-0.2,0.4-0.4,0.7-0.6c0.3-0.2,0.7-0.3,1.1-0.3c0.2,0,0.3,0,0.4,0
		c0.1,0,0.2,0.1,0.4,0.1l-0.3,1.7c-0.2-0.1-0.4-0.1-0.7-0.1c-0.5,0-0.8,0.1-1.1,0.4c-0.3,0.3-0.4,0.7-0.4,1.2v3.2h-2V17z"/>
	<path fill="#FFFFFF" d="M44.9,18.6h-1V17h1v-1.9h2V17h1.7v1.5h-1.7v2.5c0,0.3,0.1,0.6,0.2,0.7c0.1,0.2,0.3,0.3,0.6,0.3
		c0.2,0,0.4,0,0.5-0.1c0.1-0.1,0.3-0.2,0.4-0.2l0.8,1.2c-0.6,0.5-1.3,0.7-2,0.7c-0.4,0-0.8-0.1-1.1-0.2c-0.3-0.1-0.6-0.3-0.7-0.6
		c-0.2-0.2-0.3-0.5-0.4-0.8c-0.1-0.3-0.1-0.7-0.1-1.1V18.6z"/>
	<path fill="#FFFFFF" d="M50,17h2v3.7c0,0.4,0.1,0.7,0.3,0.9c0.2,0.2,0.4,0.3,0.8,0.3c0.2,0,0.4,0,0.5-0.1c0.2-0.1,0.3-0.2,0.4-0.3
		c0.1-0.1,0.2-0.3,0.2-0.4c0.1-0.2,0.1-0.3,0.1-0.5V17h2v6.4h-1.9l-0.1-0.7c-0.2,0.2-0.5,0.4-0.8,0.6c-0.3,0.2-0.7,0.2-1.1,0.2
		c-0.7,0-1.3-0.2-1.7-0.7C50.2,22.5,50,21.9,50,21C50,21,50,17,50,17z"/>
	<path fill="#FFFFFF" d="M57.4,17h1.9c0,0.1,0,0.2,0,0.3c0,0.1,0,0.2,0,0.3c0.2-0.3,0.5-0.5,0.8-0.6c0.3-0.1,0.7-0.2,1-0.2
		c0.5,0,0.9,0.1,1.2,0.3c0.4,0.2,0.7,0.4,0.9,0.7c0.2,0.3,0.4,0.7,0.5,1.1c0.1,0.4,0.2,0.8,0.2,1.2c0,0.6-0.1,1.1-0.3,1.5
		c-0.2,0.4-0.5,0.8-0.8,1.1c-0.3,0.3-0.7,0.5-1.1,0.6c-0.4,0.1-0.8,0.2-1.2,0.2c-0.3,0-0.6,0-0.8-0.1c-0.2-0.1-0.4-0.1-0.6-0.2v2.8
		h-2V17z M59.3,21.7c0.3,0.2,0.6,0.3,1.1,0.3c0.5,0,0.9-0.2,1.1-0.5c0.3-0.3,0.4-0.8,0.4-1.3c0-0.2,0-0.4-0.1-0.6s-0.1-0.4-0.2-0.5
		c-0.1-0.2-0.2-0.3-0.4-0.4c-0.2-0.1-0.4-0.1-0.6-0.1c-0.2,0-0.4,0-0.6,0.1c-0.2,0.1-0.3,0.2-0.4,0.3c-0.1,0.1-0.2,0.3-0.3,0.5
		c-0.1,0.2-0.1,0.3-0.1,0.5V21.7z"/>
	<path fill="#FFFFFF" d="M65.8,21.2c0.1,0.1,0.3,0.3,0.4,0.4c0.2,0.2,0.3,0.3,0.5,0.4c0.2,0.1,0.4,0.2,0.7,0.3
		c0.2,0.1,0.5,0.1,0.8,0.1c0.6,0,1.1-0.1,1.4-0.4c0.3-0.3,0.5-0.6,0.5-1.1c0-0.5-0.2-0.9-0.6-1.1c-0.4-0.2-0.9-0.4-1.7-0.6
		c-0.4-0.1-0.7-0.2-1.1-0.3c-0.3-0.1-0.6-0.3-0.8-0.6c-0.2-0.2-0.4-0.5-0.5-0.8s-0.2-0.6-0.2-1c0-0.3,0.1-0.7,0.2-1
		c0.1-0.3,0.3-0.6,0.6-0.8s0.6-0.4,1-0.6c0.4-0.1,0.8-0.2,1.3-0.2c0.4,0,0.8,0.1,1.2,0.1c0.3,0.1,0.6,0.2,0.8,0.3
		c0.2,0.1,0.4,0.3,0.6,0.4c0.1,0.1,0.2,0.3,0.3,0.4l-0.9,0.8c-0.1-0.1-0.1-0.2-0.2-0.3c-0.1-0.1-0.2-0.2-0.4-0.3s-0.4-0.2-0.6-0.3
		c-0.2-0.1-0.5-0.1-0.8-0.1c-0.3,0-0.5,0-0.7,0.1c-0.2,0.1-0.4,0.2-0.5,0.3c-0.1,0.1-0.2,0.3-0.3,0.4c-0.1,0.2-0.1,0.3-0.1,0.5
		c0,0.2,0.1,0.4,0.1,0.6c0.1,0.2,0.2,0.3,0.4,0.4s0.4,0.2,0.7,0.3c0.3,0.1,0.6,0.2,0.9,0.3c0.3,0.1,0.7,0.2,1,0.3
		c0.3,0.1,0.6,0.3,0.9,0.5c0.3,0.2,0.5,0.5,0.6,0.8c0.2,0.3,0.2,0.7,0.2,1.2c0,0.4-0.1,0.7-0.2,1.1c-0.2,0.3-0.4,0.6-0.7,0.8
		c-0.3,0.2-0.6,0.4-1,0.6c-0.4,0.1-0.8,0.2-1.3,0.2c-0.4,0-0.8-0.1-1.2-0.2s-0.7-0.2-1-0.4c-0.3-0.2-0.5-0.3-0.7-0.5
		c-0.2-0.2-0.4-0.4-0.5-0.6L65.8,21.2z"/>
	<path fill="#FFFFFF" d="M73.3,18.1h-1.1v-1h1.1V15h1.2v2.1h1.9v1h-1.9v3.1c0,0.5,0.1,0.9,0.2,1.1c0.2,0.2,0.4,0.3,0.7,0.3
		c0.2,0,0.4,0,0.6-0.1c0.2-0.1,0.3-0.2,0.5-0.3l0.6,0.7c-0.3,0.3-0.5,0.4-0.8,0.6c-0.3,0.1-0.6,0.2-1,0.2c-0.7,0-1.2-0.2-1.5-0.6
		c-0.3-0.4-0.5-0.9-0.5-1.7L73.3,18.1L73.3,18.1z"/>
	<path fill="#FFFFFF" d="M80.7,23.6c-0.5,0-0.9-0.1-1.3-0.3s-0.8-0.4-1.1-0.7c-0.3-0.3-0.5-0.7-0.7-1.1c-0.2-0.4-0.3-0.8-0.3-1.3
		s0.1-0.9,0.3-1.3s0.4-0.8,0.7-1.1c0.3-0.3,0.6-0.6,1.1-0.7c0.4-0.2,0.9-0.3,1.3-0.3c0.5,0,0.9,0.1,1.3,0.3c0.4,0.2,0.8,0.4,1.1,0.7
		s0.5,0.7,0.7,1.1c0.2,0.4,0.3,0.8,0.3,1.3c0,0.5-0.1,0.9-0.3,1.3c-0.2,0.4-0.4,0.8-0.7,1.1c-0.3,0.3-0.7,0.6-1.1,0.7
		C81.7,23.5,81.2,23.6,80.7,23.6z M80.7,22.6c0.3,0,0.6-0.1,0.9-0.2c0.3-0.1,0.5-0.3,0.7-0.5c0.2-0.2,0.3-0.5,0.4-0.7
		c0.1-0.3,0.1-0.6,0.1-0.8s-0.1-0.6-0.1-0.8c-0.1-0.3-0.2-0.5-0.4-0.7c-0.2-0.2-0.4-0.4-0.7-0.5C81.4,18,81.1,18,80.7,18
		s-0.6,0.1-0.9,0.2c-0.3,0.1-0.5,0.3-0.7,0.5c-0.2,0.2-0.3,0.5-0.4,0.7c-0.1,0.3-0.1,0.6-0.1,0.8s0.1,0.6,0.1,0.8
		c0.1,0.3,0.2,0.5,0.4,0.7c0.2,0.2,0.4,0.4,0.7,0.5C80.1,22.5,80.4,22.6,80.7,22.6z"/>
	<path fill="#FFFFFF" d="M85.2,23.4v-5.7c0-0.2,0-0.4,0-0.6h1.2l0,1c0.1-0.1,0.2-0.2,0.3-0.4c0.1-0.1,0.3-0.3,0.4-0.4
		s0.4-0.2,0.6-0.3c0.2-0.1,0.5-0.1,0.8-0.1c0.1,0,0.3,0,0.4,0c0.1,0,0.2,0.1,0.3,0.1l-0.3,1.1c-0.2-0.1-0.4-0.1-0.6-0.1
		c-0.3,0-0.5,0.1-0.7,0.2c-0.2,0.1-0.4,0.2-0.6,0.4c-0.2,0.2-0.3,0.4-0.4,0.6c-0.1,0.2-0.1,0.5-0.1,0.7v3.3L85.2,23.4L85.2,23.4z"/>
	<path fill="#FFFFFF" d="M90.1,23.4v-5.7c0-0.2,0-0.4,0-0.7h1.2l0,1c0.1-0.1,0.2-0.2,0.3-0.4c0.1-0.1,0.3-0.3,0.4-0.4
		s0.4-0.2,0.6-0.3c0.2-0.1,0.5-0.1,0.8-0.1c0.5,0,0.9,0.1,1.2,0.3c0.3,0.2,0.6,0.5,0.8,0.8c0.3-0.3,0.6-0.6,0.9-0.8
		c0.4-0.2,0.8-0.3,1.4-0.3c0.8,0,1.4,0.2,1.8,0.7c0.4,0.5,0.6,1.1,0.6,2v3.8h-1.2v-3.7c0-0.6-0.1-1-0.3-1.3c-0.2-0.3-0.6-0.4-1-0.4
		c-0.3,0-0.5,0.1-0.7,0.2c-0.2,0.1-0.4,0.2-0.6,0.4c-0.2,0.2-0.3,0.4-0.4,0.6c-0.1,0.2-0.1,0.5-0.1,0.7v3.5h-1.2v-3.7
		c0-0.6-0.1-1-0.3-1.3c-0.2-0.3-0.6-0.4-1-0.4c-0.3,0-0.6,0.1-0.8,0.2c-0.2,0.1-0.4,0.3-0.6,0.6c-0.1,0.2-0.2,0.5-0.3,0.8
		c-0.1,0.3-0.1,0.6-0.1,0.9v3H90.1z"/>
</g>
<g>
	<g>
		<path fill="#FFFFFF" d="M0,23.6c0.5,0.5,1.3,0.9,2.1,0.9h11.2c0.8,0,1.5-0.4,2-0.9v0H0z"/>
		<path fill="#FFFFFF" d="M0,23.6L0,23.6L0,23.6L0,23.6z"/>
		<path fill="#FFFFFF" d="M13.9,14.3c0-0.2-0.2-0.4-0.4-0.4H1.8c-0.2,0-0.4,0.2-0.4,0.4v8.5c0,0.2,0.2,0.4,0.4,0.4h11.6
			c0.2,0,0.4-0.2,0.4-0.4C13.9,22.8,13.9,14.3,13.9,14.3z M2.2,17.7c1.2-0.1,2.2-0.6,2.9-1.4c0.3,0.2,0.6,0.3,1,0.3
			c0.3,0,0.6-0.1,0.9-0.2l-0.6,1l-0.1,0.2L5.8,18l-0.7,0H5V18l0,0.7l-0.4,0.1h0v0l0.2,0.5l-0.2-0.5L5,18.8h0v0l0-0.6l0.7,0h0l0,0
			l0.5-0.4l0.1,0.1l0.5,0.3l-0.4,0.3l0,0v0L6.3,19l-0.2,0.1l0,0v0l0.1,0.6L6,20.2l0.3-0.4l0,0v0l0-0.6l0.2-0.1l0,0l0,0l0.2-0.6
			l0.5-0.3L8,18.9l-1,0.8l-0.3,0.2L7,20l0.6,0.2l-0.3,0.3l0,0l0,0l0.4,1l-0.3-1L8,20.3l0.2-0.1l-0.2-0.1l-0.5-0.2l0.7-0.5l0.6,0.3
			l0,0.4v0l0,0l0.4,0.2l-0.1,0.5l0.2-0.5l0,0l0,0L8.9,20L9,19.6v0l0,0l-0.6-0.3l0.2-0.1l0.3-0.2l-0.3-0.2l-1.4-1.3L7.5,17l0.7,0.5
			l0.1,0l0.1,0L9,17.2l0.3,0.7l0,0.1l0.1,0l0.6-0.3l0.4,0.3l-0.1,0.9l0.1-0.9v0h0l-0.4-0.4l0,0l0,0l-0.6,0.3L9.2,17l0-0.1l-0.1,0
			l-0.8,0.2l-0.6-0.5l0.8-1c0.2,0,0.4-0.1,0.6-0.2c0.3,0.2,0.7,0.4,1.1,0.4c0.4,1.1,1.5,1.9,2.7,1.9c0.1,0,0.2,0,0.3,0v4.6H2.2V17.7
			z"/>
	</g>
</g>
</svg>
